<svg xmlns="http://www.w3.org/2000/svg" width="100" height="100"><circle cx="50" cy="50" r="50" fill="#F3F6F8"/><path d="M15.272 47.655c1.244-3.76 3.828-6.035 7.752-6.775.252-.048.3-.204.36-.4a27.692 27.692 0 0 1 4.506-8.394c3.843-4.893 8.747-8.254 14.745-10.015a28.093 28.093 0 0 1 9.664-1.082c6.783.408 12.716 2.873 17.747 7.424 3.67 3.32 6.305 7.326 7.885 12.007.102.302.287.338.555.396 3.985.856 6.638 3.2 7.678 7.13 1.432 5.4-2.04 10.764-7.545 11.857-.18.035-.362.1-.54.08-.473-.027-.674.205-.858.628-3.276 7.532-8.755 12.807-16.458 15.78a.87.87 0 0 0-.564.57c-.623 1.64-1.838 2.557-3.583 2.79-.106.015-.21.044-.317.067h-.438c-.387-.1-.785-.148-1.16-.273-1.972-.656-3.1-2.452-2.857-4.514.216-1.818 1.9-3.352 3.874-3.505 1.696-.133 3.03.516 4.04 1.854 10.66-3.753 18.853-15.77 15.938-29.136C72.66 30.238 58.776 21.402 44.67 24.81c-7.663 1.85-13.352 6.388-16.887 13.39-3.538 7.007-3.722 13.925-.755 21.262-.764.1-1.357.543-2.1.567-5.133.16-8.932-3.468-9.656-8-.042-.26-.22-.415-.267-.676 0-.532-.14-1.226-.14-1.758.132-.647.2-1.315.407-1.938z" fill="#0064D2"/><path d="M15.272 47.434c1.244-3.76 3.828-6.035 7.752-6.775.252-.048.3-.204.36-.39.373-1.116 2.868 1.35 2.292 3.65-1.35 5.405-.53 10.886 1.352 15.54-.676.676-1.96.653-2.703.676-5.132.162-8.595-3.853-9.32-8.385-.02-.13-.185-1.466-.14-2.426.047-.975.303-1.576.407-1.9z" fill="#009AFF"/><path d="M50.66 70.946c-11.955-.004-21.6-9.703-21.604-21.703.006-11.878 9.728-21.547 21.658-21.54 11.95.007 21.597 9.714 21.585 21.72-.012 11.862-9.728 21.525-21.64 21.522" fill="#0064D2"/><path d="M41.858 48.488h3.025c.3 0 .53.062.69.185a.605.605 0 0 1 .238.504.67.67 0 0 1-.189.481c-.125.13-.316.197-.57.197h-4.265c-.3 0-.516-.08-.678-.24a.769.769 0 0 1-.243-.565c0-.14.052-.324.156-.554s.22-.4.342-.54l1.4-1.37.887-.75a5.18 5.18 0 0 0 .791-.676c.2-.226.37-.458.48-.695s.165-.47.165-.698c0-.248-.06-.47-.177-.664a1.224 1.224 0 0 0-.48-.455 1.388 1.388 0 0 0-.664-.162c-.506 0-.904.222-1.193.666-.04.058-.104.217-.195.476s-.193.457-.307.596-.28.21-.5.21a.652.652 0 0 1-.482-.191c-.127-.128-.19-.302-.19-.522a2.18 2.18 0 0 1 .18-.834 2.39 2.39 0 0 1 .536-.788c.237-.236.538-.426.903-.57s.793-.218 1.284-.218c.6 0 1.095.093 1.512.278.27.124.508.294.713.5a2.35 2.35 0 0 1 .648 1.634c0 .48-.118.914-.356 1.306s-.48.7-.727.922l-1.243 1.045c-.58.476-.98.844-1.196 1.107a3.29 3.29 0 0 0-.284.377zm8.558.63v-1.077h-2.91c-.367 0-.642-.083-.825-.25s-.276-.392-.276-.677a.69.69 0 0 1 .04-.224c.028-.075.07-.154.123-.237l.168-.24.214-.284 3.07-4.108a4.89 4.89 0 0 1 .496-.589.657.657 0 0 1 .467-.182c.587 0 .88.336.88 1.008v4.485h.25c.297 0 .535.04.715.12s.27.26.27.533c0 .225-.074.388-.22.5s-.368.154-.66.154h-.354v1.077c0 .298-.065.52-.197.664a.677.677 0 0 1-.527.217.67.67 0 0 1-.524-.223c-.134-.15-.2-.368-.2-.658zm-2.492-2.375h2.492v-3.367l-2.492 3.367zm8.448-4.352l-1.622 6.68a8.47 8.47 0 0 1-.142.521.637.637 0 0 1-.186.299c-.083.07-.203.107-.362.107-.394 0-.6-.17-.6-.5 0-.09.038-.3.115-.666l1.617-6.68c.085-.356.166-.6.243-.73s.228-.198.452-.198c.193 0 .34.047.443.14a.49.49 0 0 1 .154.382c0 .12-.04.338-.122.654zm2.12-.95h3.86c.37 0 .64.058.805.174s.25.307.25.574c0 .162-.098.376-.293.643l-.667.883c-.25.323-.506.724-.77 1.203s-.507 1.064-.728 1.755a7.751 7.751 0 0 0-.197.76l-.127.78-.122.736c-.08.394-.196.668-.344.82s-.347.23-.594.23a.716.716 0 0 1-.568-.246c-.143-.164-.215-.407-.215-.727 0-.248.053-.584.157-1.01s.274-.933.5-1.526a14.81 14.81 0 0 1 2.144-3.688h-3.1c-.325 0-.567-.06-.727-.177s-.24-.302-.24-.553c0-.267.084-.44.254-.516s.408-.116.713-.116z" fill="#FEDD00" stroke="#FEDD00"/><path d="M54.306 58.95a8.31 8.31 0 0 0 2.854-1.965c.367-.388.483-.853.305-1.364s-.554-.805-1.086-.878c-.49-.067-.863.157-1.2.49-1.7 1.637-3.692 2.096-5.94 1.41-.884-.27-1.635-.778-2.278-1.442-.322-.33-.702-.523-1.168-.462a1.27 1.27 0 0 0-1.108.892c-.186.537-.04 1.007.352 1.404a8.44 8.44 0 0 0 5.965 2.575c1.202-.023 2.28-.227 3.314-.66z" fill="#FFF"/><path d="M86.08 47.306c-1.244-3.76-3.828-6.035-7.752-6.775-.25-.048-.298-.204-.36-.39-.373-1.116-2.867 1.35-2.292 3.65 1.35 5.405.53 10.885-1.352 15.54.676.676 1.96.653 2.703.676 5.133.16 8.595-3.853 9.32-8.385.02-.13.185-1.466.14-2.426-.046-.975-.303-1.576-.407-1.9z" fill="#009AFF"/><circle cx="54.392" cy="73.986" r="6.568" fill="#FEDD00" stroke="#F3F6F8" stroke-width="3"/></svg>