<svg xmlns="http://www.w3.org/2000/svg" width="100" height="100"><circle cx="50" cy="50" r="50" fill="#F3F6F8"/><path d="M69.433 36h-46.62C19.14 36 16 39.41 16 43.645v20.33h60v-20.33C76 39.4 73.105 36 69.433 36z" fill="#0064D2"/><path d="M16 67.033C16 70.32 19.14 73 22.812 73h46.62C73.104 73 76 70.32 76 67.033v-.35H16v.35z" fill="#009AFF"/><path d="M85.2 38.3v.032c.18 9.745-.176 14.595-2.164 20.147-2.748 7.674-8.324 13.276-17.56 16.583l-.167.047-.808.168-.808-.168-.167-.047c-12.167-4.344-17.824-12.44-19.32-24.128-.457-3.58-.517-6.55-.4-12.4l.005-.234c.045-1.028.054-1.828.054-3.618 0-1.657 1.27-2.972 2.913-2.972 6.596 0 11.54-1.937 15.708-6.143 1.147-1.1 2.9-1.1 4.076.027 4.14 4.18 9.083 6.116 15.68 6.116 1.643 0 2.913 1.315 2.913 2.972L85.2 38.3z" fill="#0064D2" stroke="#F3F6F8" stroke-width="2.5"/><g fill="#FEDD00"><path d="M68.67 47.5v-4.382c0-2.226-1.87-4.037-4.17-4.037s-4.17 1.8-4.17 4.037V47.5c-2.054 1.414-3.413 3.84-3.413 6.6 0 4.356 3.402 7.9 7.583 7.9s7.583-3.544 7.583-7.9c0-2.75-1.36-5.176-3.412-6.6zm-7.582-.457v-3.925c0-1.8 1.53-3.247 3.412-3.247s3.413 1.457 3.413 3.247v3.925c-.072-.038-.145-.07-.217-.106a7.49 7.49 0 0 0-.752-.317 9.24 9.24 0 0 0-.297-.102 7.365 7.365 0 0 0-.722-.182 7.296 7.296 0 0 0-.6-.096l-.136-.013a7.05 7.05 0 0 0-.689-.036 7.22 7.22 0 0 0-.689.036c-.045.004-.1.007-.136.013a7.296 7.296 0 0 0-1.321.278c-.1.03-.2.066-.297.1a7.398 7.398 0 0 0-.753.318c-.072.035-.145.068-.216.106zm4.93 7.837c0 .872-.68 1.58-1.517 1.58s-1.517-.708-1.517-1.58v-2.37c0-.87.68-1.58 1.517-1.58s1.517.71 1.517 1.58v2.37z"/><circle cx="26.5" cy="50.5" r="4.5"/></g><circle cx="32.5" cy="50.5" r="4.5" fill="#FFF" stroke="#0064D2"/></svg>