<svg xmlns="http://www.w3.org/2000/svg" width="100" height="100"><g fill="none"><circle cx="50" cy="50" r="50" fill="#F3F6F8"/><path d="M46.06 22l14.383 6.197a8 8 0 0 1 4.252 4.35l13.656 33.8a5 5 0 0 1-2.762 6.51l-20.173 8.15a5 5 0 0 1-6.509-2.763L35.304 44.586a8 8 0 0 1 .134-6.305l6.703-14.756a3 3 0 0 1 3.918-1.514zm4.503 17.956c2.218-.896 3.28-3.44 2.376-5.68s-3.438-3.333-5.655-2.437-3.28 3.44-2.376 5.68 3.438 3.333 5.655 2.437z" fill="#FEDD00"/><path d="M47.483 21.515L58.498 32.65a8 8 0 0 1 2.313 5.627v36.454a5 5 0 0 1-5 5H34.054a5 5 0 0 1-5-5V38.418a8 8 0 0 1 2.486-5.796l11.742-11.17a3 3 0 0 1 4.2.063zm-2.55 18.335c2.39 0 4.33-1.96 4.33-4.377s-1.94-4.377-4.33-4.377-4.33 1.96-4.33 4.377 1.94 4.377 4.33 4.377z" fill="#0064D2"/><g fill="#FFF"><path d="M39.84 70.205a.955.955 0 0 1-1.361 0 .98.98 0 0 1 0-1.376l12.03-12.158a.955.955 0 0 1 1.361 0 .98.98 0 0 1 0 1.375l-12.03 12.16z" fill-rule="nonzero"/><ellipse cx="40.121" cy="58.818" rx="3.368" ry="3.404"/><ellipse cx="49.744" cy="68.544" rx="3.368" ry="3.404"/></g><path d="M47.297 32.824c.63 5.636 5.394 3.296 14.29-7.022 6.352-7.366 2.382-10.563-2.72-9.326-1.916.465-4.98 2.184-9.19 5.157" stroke="#009AFF" stroke-linecap="round" stroke-linejoin="round" stroke-width="3"/></g></svg>